<mxfile host="app.diagrams.net" modified="2022-11-15T11:39:02.990Z" agent="5.0 (Windows NT 10.0; Win64; x64) AppleWebKit/537.36 (KHTML, like Gecko) Chrome/107.0.0.0 Safari/537.36" etag="OmPCH2c60Om3Q09mEKte" version="20.5.3" type="github">
  <diagram id="m_kA-xb8XZygdGC1ybIE" name="Страница 1">
    <mxGraphModel dx="813" dy="435" grid="1" gridSize="10" guides="1" tooltips="1" connect="1" arrows="1" fold="1" page="1" pageScale="1" pageWidth="827" pageHeight="1169" math="0" shadow="0">
      <root>
        <mxCell id="0" />
        <mxCell id="1" parent="0" />
        <mxCell id="BJn2bWMMtNKTrfIKdhUw-8" value="" style="endArrow=blockThin;html=1;rounded=0;entryX=0.5;entryY=0;entryDx=0;entryDy=0;endFill=1;startArrow=none;" edge="1" parent="1" source="BJn2bWMMtNKTrfIKdhUw-18" target="BJn2bWMMtNKTrfIKdhUw-2">
          <mxGeometry width="50" height="50" relative="1" as="geometry">
            <mxPoint x="420" y="80" as="sourcePoint" />
            <mxPoint x="420" y="120" as="targetPoint" />
          </mxGeometry>
        </mxCell>
        <mxCell id="BJn2bWMMtNKTrfIKdhUw-2" value="&lt;font style=&quot;font-size: 8px;&quot;&gt;Подготовиться к экзамену&lt;/font&gt;" style="rounded=0;whiteSpace=wrap;html=1;" vertex="1" parent="1">
          <mxGeometry x="360" y="240" width="120" height="40" as="geometry" />
        </mxCell>
        <mxCell id="BJn2bWMMtNKTrfIKdhUw-5" value="" style="endArrow=blockThin;html=1;rounded=0;entryX=0.5;entryY=1;entryDx=0;entryDy=0;endFill=1;startArrow=none;" edge="1" parent="1" source="BJn2bWMMtNKTrfIKdhUw-16" target="BJn2bWMMtNKTrfIKdhUw-2">
          <mxGeometry width="50" height="50" relative="1" as="geometry">
            <mxPoint x="420" y="440" as="sourcePoint" />
            <mxPoint x="450" y="290" as="targetPoint" />
          </mxGeometry>
        </mxCell>
        <mxCell id="BJn2bWMMtNKTrfIKdhUw-7" value="" style="endArrow=none;html=1;rounded=0;entryX=1;entryY=0.5;entryDx=0;entryDy=0;endFill=0;startArrow=blockThin;startFill=1;" edge="1" parent="1" target="BJn2bWMMtNKTrfIKdhUw-2">
          <mxGeometry width="50" height="50" relative="1" as="geometry">
            <mxPoint x="640" y="260" as="sourcePoint" />
            <mxPoint x="520" y="180" as="targetPoint" />
          </mxGeometry>
        </mxCell>
        <mxCell id="BJn2bWMMtNKTrfIKdhUw-9" value="&lt;font style=&quot;font-size: 8px;&quot;&gt;Сдача экзамена на отличную оценку&lt;/font&gt;" style="text;html=1;strokeColor=none;fillColor=none;align=center;verticalAlign=middle;whiteSpace=wrap;rounded=0;" vertex="1" parent="1">
          <mxGeometry x="490" y="240" width="140" height="20" as="geometry" />
        </mxCell>
        <mxCell id="BJn2bWMMtNKTrfIKdhUw-11" value="" style="endArrow=blockThin;html=1;rounded=0;endFill=1;" edge="1" parent="1">
          <mxGeometry width="50" height="50" relative="1" as="geometry">
            <mxPoint x="200" y="260" as="sourcePoint" />
            <mxPoint x="360" y="260" as="targetPoint" />
          </mxGeometry>
        </mxCell>
        <mxCell id="BJn2bWMMtNKTrfIKdhUw-12" value="Изучение теории" style="text;html=1;strokeColor=none;fillColor=none;align=center;verticalAlign=middle;whiteSpace=wrap;rounded=0;fontSize=8;" vertex="1" parent="1">
          <mxGeometry x="230" y="235" width="100" height="30" as="geometry" />
        </mxCell>
        <mxCell id="BJn2bWMMtNKTrfIKdhUw-16" value="Студент" style="text;html=1;strokeColor=none;fillColor=none;align=center;verticalAlign=middle;whiteSpace=wrap;rounded=0;fontSize=8;" vertex="1" parent="1">
          <mxGeometry x="390" y="320" width="60" height="30" as="geometry" />
        </mxCell>
        <mxCell id="BJn2bWMMtNKTrfIKdhUw-17" value="" style="endArrow=none;html=1;rounded=0;entryX=0.5;entryY=1;entryDx=0;entryDy=0;endFill=1;" edge="1" parent="1" target="BJn2bWMMtNKTrfIKdhUw-16">
          <mxGeometry width="50" height="50" relative="1" as="geometry">
            <mxPoint x="420" y="440" as="sourcePoint" />
            <mxPoint x="420" y="280" as="targetPoint" />
          </mxGeometry>
        </mxCell>
        <mxCell id="BJn2bWMMtNKTrfIKdhUw-18" value="План подготовки" style="text;html=1;strokeColor=none;fillColor=none;align=center;verticalAlign=middle;whiteSpace=wrap;rounded=0;fontSize=8;" vertex="1" parent="1">
          <mxGeometry x="385" y="170" width="70" height="30" as="geometry" />
        </mxCell>
        <mxCell id="BJn2bWMMtNKTrfIKdhUw-20" value="" style="endArrow=none;html=1;rounded=0;entryX=0.5;entryY=0;entryDx=0;entryDy=0;endFill=1;" edge="1" parent="1" target="BJn2bWMMtNKTrfIKdhUw-18">
          <mxGeometry width="50" height="50" relative="1" as="geometry">
            <mxPoint x="420" y="80" as="sourcePoint" />
            <mxPoint x="420" y="240" as="targetPoint" />
          </mxGeometry>
        </mxCell>
        <mxCell id="BJn2bWMMtNKTrfIKdhUw-23" value="Цель:&amp;nbsp; описать порядок подготовки к экзамену, предполагающий получение отличной оценки.&lt;br&gt;&lt;br&gt;Точка зрения: Преподавателя, принимающего экзамен.&amp;nbsp;&amp;nbsp;" style="text;html=1;strokeColor=none;fillColor=none;align=center;verticalAlign=middle;whiteSpace=wrap;rounded=0;fontSize=8;" vertex="1" parent="1">
          <mxGeometry x="200" y="330" width="180" height="70" as="geometry" />
        </mxCell>
      </root>
    </mxGraphModel>
  </diagram>
</mxfile>
